<svg xmlns="http://www.w3.org/2000/svg" viewBox="0 0 96 96" role="img" aria-label="SmartTense mark">
  <rect width="96" height="96" rx="24" fill="#102235"/>
  <path d="M22 27c0-4.4 3.6-8 8-8h43c3.9 0 7 3.1 7 7v43c0 4.4-3.6 8-8 8H30c-4.4 0-8-3.6-8-8V27Z" fill="#f8fbff"/>
  <path d="M30 31h26v8H46v29h-8V39h-8v-8Z" fill="#214c83"/>
  <path d="M58 30h12v8H58v-8Zm0 15h12v8H58v-8Zm0 15h12v8H58v-8Z" fill="#14b8a6"/>
  <path d="M30 72h40" stroke="#f2b84b" stroke-width="6" stroke-linecap="round"/>
</svg>
